# xmcd
#
# Track frame offsets:
#	150
#	2424
#	18772
#	33216
#	47890
#	63538
#	78467
#	91612
#	109532
#	126905
#	140785
#	159639
#	176859
#	192167
#	204360
#	217382
#	231701
#	247169
#	261114
#	275971
#	292907
#
# Disc length: 4096 seconds
#
# Revision: 2
# Processed by: cddbd v1.5.2PL0 Copyright (c) Steve Scherf et al.
# Submitted via: audiograbber 1.83.01
#
DISCID=3b0ffe15
DTITLE=Various Artist - On The Road 5 - A Taste Of Tamworth 2014
DYEAR=2013
DGENRE=Country
TTITLE0=NRMA Businesswise - Welcome
TTITLE1=Ben Ransom - Big Country Sky
TTITLE2=Kaylee Bell - Little Bit Small Town
TTITLE3=Karl Brodie - You Should Know By Now
TTITLE4=Georgia Fall - No Use For You
TTITLE5=Lachlan Bryan and The Wildes - Black Coffee
TTITLE6=Dianna Corcoran - God Did Good
TTITLE7=Brad Butcher - The Old Man's Gone
TTITLE8=Lou Bradley - Apples And Grapes
TTITLE9=Allan Caswell - It's A Country Song
TTITLE10=Megan Cooper - Virginia Fall
TTITLE11=Luke O'Shea - Fool's Gold
TTITLE12=Kristy Cox - I'll Cry Tonight
TTITLE13=Doug Bruce - Clock Out At Five
TTITLE14=Pete Denahy - Cotton Eyed Joe
TTITLE15=Allison Forbes - What'll Happen To Me Now?
TTITLE16=Tom Maxwell - One More Time
TTITLE17=Marie Hodson - Crazy Arms
TTITLE18=4 Highwaymen - Waylon, The Lucky One
TTITLE19=Jeff Brown - Little Bulldog
TTITLE20=The Hillbilly Goats - Sugar Baby
EXTD=
EXTT0=
EXTT1=
EXTT2=
EXTT3=
EXTT4=
EXTT5=
EXTT6=
EXTT7=
EXTT8=
EXTT9=
EXTT10=
EXTT11=
EXTT12=
EXTT13=
EXTT14=
EXTT15=
EXTT16=
EXTT17=
EXTT18=
EXTT19=
EXTT20=
PLAYORDER=
